<?xml version="1.0" encoding="UTF-8" standalone="no"?>
<!-- Created with Inkscape (http://www.inkscape.org/) -->

<svg
   width="136mm"
   height="136mm"
   viewBox="0 0 136 136"
   version="1.1"
   id="svg1"
   xml:space="preserve"
   sodipodi:docname="powerxrd.svg"
   inkscape:version="1.3.2 (1:1.3.2+202311252150+091e20ef0f)"
   inkscape:export-filename="powerxrd.png"
   inkscape:export-xdpi="96"
   inkscape:export-ydpi="96"
   xmlns:inkscape="http://www.inkscape.org/namespaces/inkscape"
   xmlns:sodipodi="http://sodipodi.sourceforge.net/DTD/sodipodi-0.dtd"
   xmlns:xlink="http://www.w3.org/1999/xlink"
   xmlns="http://www.w3.org/2000/svg"
   xmlns:svg="http://www.w3.org/2000/svg"><sodipodi:namedview
     id="namedview1"
     pagecolor="#ffffff"
     bordercolor="#000000"
     borderopacity="0.25"
     inkscape:showpageshadow="2"
     inkscape:pageopacity="0.0"
     inkscape:pagecheckerboard="0"
     inkscape:deskcolor="#d1d1d1"
     inkscape:document-units="mm"
     inkscape:zoom="1.0507202"
     inkscape:cx="42.351903"
     inkscape:cy="353.09115"
     inkscape:window-width="1850"
     inkscape:window-height="1016"
     inkscape:window-x="70"
     inkscape:window-y="27"
     inkscape:window-maximized="1"
     inkscape:current-layer="layer1" /><defs
     id="defs1"><linearGradient
       inkscape:collect="always"
       xlink:href="#linearGradient1011"
       id="linearGradient1013"
       x1="352.35336"
       y1="42.279549"
       x2="353.59305"
       y2="202.74539"
       gradientUnits="userSpaceOnUse"
       gradientTransform="translate(958.1783,-22.138312)" /><linearGradient
       inkscape:collect="always"
       id="linearGradient1011"><stop
         style="stop-color:#42f680;stop-opacity:1;"
         offset="0"
         id="stop1007" /><stop
         style="stop-color:#42f6af;stop-opacity:0;"
         offset="1"
         id="stop1009" /></linearGradient></defs><g
     inkscape:label="Layer 1"
     inkscape:groupmode="layer"
     id="layer1"
     transform="translate(-963.80725,4.6638436)"><path
       style="fill:#2feb9c;fill-opacity:1;stroke:#ffffff;stroke-width:0;stroke-linejoin:round;stroke-miterlimit:9;stroke-dasharray:none;stroke-opacity:1"
       d="m 1031.8045,-1.0341808 -14.0705,24.3712728 -0.5588,33.864705 2.9744,40.831766 8.8871,28.346867 2.8102,1.07326 6.2505,-2.58064 5.6528,-43.233263 1.9779,-35.010206 0.2432,-23.29734 z"
       id="path22-1" /><path
       style="fill:#13a49a;fill-opacity:1;stroke:#ffffff;stroke-width:0;stroke-linejoin:round;stroke-miterlimit:9;stroke-dasharray:none;stroke-opacity:1"
       d="m 980.90091,26.969726 36.27429,23.587411 10.9558,71.262583 -0.3201,4.95439 -1.2261,0.39368 -53.78871,-64.466076 9.48861,-15.298743 z"
       id="path23-1" /><path
       style="fill:#70f486;fill-opacity:1;stroke:#ffffff;stroke-width:0;stroke-linejoin:round;stroke-miterlimit:9;stroke-dasharray:none;stroke-opacity:1"
       d="m 1045.4841,50.948641 8.4661,-5.069954 28.4067,-18.26039 -1.1466,18.270425 9.5492,17.251129 -53.4818,63.080879 z"
       id="path24-5"
       sodipodi:nodetypes="ccccccc" /><path
       style="fill:#02a098;fill-opacity:1;stroke:#ffffff;stroke-width:0;stroke-linejoin:round;stroke-miterlimit:9;stroke-dasharray:none;stroke-opacity:1"
       d="m 1031.8634,-1.0442164 -14.0705,24.3712724 13.8965,5.26683 z"
       id="path1-4-2" /><path
       style="fill:#92fa7e;fill-opacity:1;stroke:#ffffff;stroke-width:0;stroke-linejoin:round;stroke-miterlimit:9;stroke-dasharray:none;stroke-opacity:1"
       d="m 1031.8634,-1.0442164 -0.174,29.6381024 14.3409,-5.27168 z"
       id="path2-3-7" /><path
       style="fill:#26e199;fill-opacity:1;stroke:#ffffff;stroke-width:0;stroke-linejoin:round;stroke-miterlimit:9;stroke-dasharray:none;stroke-opacity:1"
       d="m 1017.7929,23.327056 6.1104,12.276683 0.436,24.312311 0.4116,18.859363 0.4348,10.125128 0.1095,5.724915 0.9103,10.310464 1.2834,9.0676 2.9652,12.0131 0.6483,1.46404 0.803,-0.037 0.011,-37.583442 -0.025,-21.158637 -0.011,-12.177768 0.041,-17.101634 -0.2367,-10.828347 v 0 0 z"
       id="path3-1-2" /><path
       style="fill:#c7ff80;fill-opacity:1;stroke:#ffffff;stroke-width:0;stroke-linejoin:round;stroke-miterlimit:9;stroke-dasharray:none;stroke-opacity:1"
       d="m 1031.6891,28.593842 14.3412,-5.271636 -6.0378,12.27989 -0.2309,14.899152 -0.021,16.782003 -0.4198,16.343598 -0.3006,4.763351 -1.0632,12.9319 -1.0223,7.81792 -1.3243,8.03413 -1.4599,7.36365 -0.9986,2.07311 -1.2459,0.83276 v 0 z"
       id="path4-4-2" /><path
       style="fill:#06cd9c;fill-opacity:1;stroke:#ffffff;stroke-width:0;stroke-linejoin:round;stroke-miterlimit:9;stroke-dasharray:none;stroke-opacity:1"
       d="m 982.90234,57.750481 -1.9425,-30.79079 11.83194,26.003188 z"
       id="path5-9-6" /><path
       style="fill:#87f57f;fill-opacity:1;stroke:#ffffff;stroke-width:0;stroke-linejoin:round;stroke-miterlimit:9;stroke-dasharray:none;stroke-opacity:1"
       d="m 980.95984,26.959691 11.83194,26.003188 0.55877,2.09684 8.93535,-9.98843 z"
       id="path6-2-1" /><path
       style="fill:#35f597;fill-opacity:1;stroke:#ffffff;stroke-width:0;stroke-linejoin:round;stroke-miterlimit:9;stroke-dasharray:none;stroke-opacity:1"
       d="m 982.90234,57.750481 9.88944,-4.787602 0.55877,2.09684 1.05255,4.405879 2.18951,5.506691 10.19889,23.023058 10.4427,20.205623 7.6252,14.84664 1.7844,4.11015 -7.7671,-9.37589 -4.5127,-7.14374 -6.5566,-10.98681 -8.06061,-15.636814 -6.39624,-11.660365 -5.08932,-7.98343 z"
       id="path7-0-0" /><path
       style="fill:#ccf789;fill-opacity:1;stroke:#ffffff;stroke-width:0;stroke-linejoin:round;stroke-miterlimit:9;stroke-dasharray:none;stroke-opacity:1"
       d="m 993.35055,55.059719 8.93535,-9.98843 0.2206,1.085366 -1.1978,2.194994 9.2208,23.956605 2.9626,7.669667 4.9267,12.832765 3.5793,10.425694 5.2042,15.56671 1.9751,6.01321 -0.082,1.5541 -2.4518,0.78736 -20.2057,-39.95992 -6.51461,-14.706486 -4.42561,-10.272411 -1.09464,-2.753345 z"
       id="path8-6-6" /><path
       style="fill:#05a199;fill-opacity:1;stroke:#ffffff;stroke-width:0;stroke-linejoin:round;stroke-miterlimit:9;stroke-dasharray:none;stroke-opacity:1"
       d="m 1061.6515,45.358969 8.7764,9.113867 11.9879,-26.864574 z"
       id="path9-8-1" /><path
       style="fill:#88fb77;fill-opacity:1;stroke:#ffffff;stroke-width:0;stroke-linejoin:round;stroke-miterlimit:9;stroke-dasharray:none;stroke-opacity:1"
       d="m 1082.4158,27.608262 -11.9879,26.864574 10.0534,3.958625 z"
       id="path10-9-5" /><path
       style="fill:#2cea9f;fill-opacity:1;stroke:#ffffff;stroke-width:0;stroke-linejoin:round;stroke-miterlimit:9;stroke-dasharray:none;stroke-opacity:1"
       d="m 1061.6515,45.358969 0.7374,3.485163 -11.3239,29.7649 -5.4551,14.434541 -1.3794,3.729035 -3.3982,9.208842 -2.5435,8.30628 -2.5827,10.47103 0.4663,2.71068 0.3445,0.089 3.2788,-5.39073 3.2543,-6.40666 6.7359,-13.0194 7.0236,-13.644637 8.2763,-18.279834 5.3421,-16.344347 z"
       id="path11-2-9" /><path
       style="fill:#c1fd7b;fill-opacity:1;stroke:#ffffff;stroke-width:0;stroke-linejoin:round;stroke-miterlimit:9;stroke-dasharray:none;stroke-opacity:1"
       d="m 1070.4279,54.472836 -0.5587,1.57158 -1.2888,4.081186 -2.1742,6.65189 -1.3204,4.039647 -7.0336,15.535083 -5.4346,10.888372 -2.3852,4.633646 -12.0762,22.98879 -1.6393,2.69537 1.0473,0.15813 1.8942,-1.97448 11.5964,-17.42841 8.0403,-14.440743 12.9385,-23.583187 8.4477,-11.858249 z"
       id="path12-6-4" /><path
       style="fill:#009486;fill-opacity:1;stroke:#ffffff;stroke-width:0;stroke-linejoin:round;stroke-miterlimit:9;stroke-dasharray:none;stroke-opacity:1"
       d="M 982.34359,47.392935 972.855,62.691679 982.90234,57.750481 Z"
       id="path13-6-9" /><path
       style="fill:#27ce8f;fill-opacity:1;stroke:#ffffff;stroke-width:0;stroke-linejoin:round;stroke-miterlimit:9;stroke-dasharray:none;stroke-opacity:1"
       d="m 972.855,62.69169 5.44845,7.013563 4.59889,-11.954772 z"
       id="path14-4-0" /><path
       style="fill:#219e8d;fill-opacity:1;stroke:#ffffff;stroke-width:0;stroke-linejoin:round;stroke-miterlimit:9;stroke-dasharray:none;stroke-opacity:1"
       d="m 982.90234,57.750481 -4.59889,11.954772 28.13255,33.587427 12.4407,14.48919 -11.0693,-18.13055 -12.48276,-23.69825 -7.06341,-11.582348 z"
       id="path15-9-9" /><path
       style="fill:#70f486;fill-opacity:1;stroke:#ffffff;stroke-width:0;stroke-linejoin:round;stroke-miterlimit:9;stroke-dasharray:none;stroke-opacity:1"
       d="m 1080.4813,58.431461 4.9637,10.499709 5.3734,-5.801344 -0.084,-0.866125 z"
       id="path16-5-1" /><path
       style="fill:#26e890;fill-opacity:1;stroke:#ffffff;stroke-width:0;stroke-linejoin:round;stroke-miterlimit:9;stroke-dasharray:none;stroke-opacity:1"
       d="m 1080.4813,58.431461 0.7879,-12.552774 7.666,14.086054 1.7994,2.298949 z"
       id="path17-0-7" /><path
       style="fill:#26e890;fill-opacity:1;stroke:#ffffff;stroke-width:0;stroke-linejoin:round;stroke-miterlimit:9;stroke-dasharray:none;stroke-opacity:1"
       d="m 1080.4813,58.431461 -8.4477,11.858238 -6.4692,11.791599 -6.4693,11.791588 -8.0403,14.440754 -5.7982,8.7142 -3.1975,4.80565 4.1778,-5.12545 6.8302,-8.04385 4.8022,-5.68725 10.5758,-12.721088 14.9941,-18.216447 2.0058,-3.108235 z"
       id="path18-4-7" /><path
       style="fill:url(#linearGradient1013);fill-opacity:1;stroke:none;stroke-width:2.91042;stroke-miterlimit:9;stroke-opacity:1"
       d="m 738.28723,148.23177 h 21.55723 L 776.18789,-9.703365 800.41534,148.23177 h 9.45766 l 26.12224,-159.010627 31.65727,159.010627 h 7.3809 l 16.67652,-158.670619 19.19698,158.670619 h 22.79632"
       id="path974" /></g></svg>
